# xmcd CD database file
#
# Track frame offsets:
#	150
#	18918
#	49779
#	69132
#	94038
#	110400
#	136576
#	156848
#	177833
#	204222
#	231403
#	245770
#	263774
#	302201
#	316679
#
# Disc length: 4456 seconds
#
# Revision: 1
# Processed by: cddbd v1.5.2PL0 Copyright (c) Steve Scherf et al.
# Submitted via: CDex 1.51
#
DISCID=bb11660f
DTITLE=CHICAGO'S FINES BLUES LADIES - Chicago Blues Session Volume 28
DYEAR=1993
DGENRE=Chicago Blues
TTITLE0=I´m Feeling Good(Deitra Farr)
TTITLE1=Mean Old World(Deitra Farr)
TTITLE2=Bad Track Record(Zora Young)
TTITLE3=Bus Station Blues(Zora Young)
TTITLE4=Ride My Automobile(Mary Lane)
TTITLE5=You Can't Take Out(Mary Lane)
TTITLE6=You Hurt My Feelings(Mary Lane)
TTITLE7=Steppin In(Melvina Allen)
TTITLE8=Dr. Feelgood(Melvina Allen)
TTITLE9=Breakin Up Somebody's Home(Melvina Allen)
TTITLE10=Who's Lovin You Tonight(Karen Carroll)
TTITLE11=I Got To Have Somebody(Karen Carroll)
TTITLE12=Sad And Evil Woman(Bonnie Lee)
TTITLE13=Let It Roll(Bonnie Lee)
TTITLE14=What's The Matter(Bonnie Lee)
EXTD=YEAR: 1993
EXTT0=
EXTT1=
EXTT2=
EXTT3=
EXTT4=
EXTT5=
EXTT6=
EXTT7=
EXTT8=
EXTT9=
EXTT10=
EXTT11=
EXTT12=
EXTT13=
EXTT14=
PLAYORDER=
